With: Brian O'Halloran, Jeff Anderson and Marilyn Ghigliotti

Dante heeft een vervelende baan in een winkel. Hij is nog steeds gek van z'n high school-liefde Caitlin, maar hij heeft nu een serieuze relatie met Veronica. Veronica wil dat hij z'n baantje opzegt, en gaat studeren. Dante's beste vriend Randall, die de videotheek naast de winkel runt, is nog minder gemotiveerd in z'n baantje. De film volgt de twee tijdens één werkdag, vol interessante gebeurtenissen.

A day in the lives of two convenience clerks named Dante and Randal as they annoy customers, discuss movies, and play hockey on the store roof. 
 
http://www.imdb.com/title/tt0109445	

------------------------ Dutch Friends ------------------------
---------------------------------------------------------------
- Bezoek ook eens mijn vrienden op:  http://www.Film-Test.nl --
----- voor mijn Nederlandse Sync. ondertitels ---- en meer ----
------- http://www.Film-Test.nl ---- Over Films en meer -------
---------------------------------------------------------------

General:

Complete name                    : ClerksClerks.avi
Format                           : AVI
Format/Info                      : Audio Video Interleave
File size                        : 1.36 GiB
Duration                         : 1h 39mn
Overall bit rate                 : 1959 Kbps

Video:

Format                           : MPEG-4 Visual
Format profile                   : Advanced Simple@L5
Format settings, BVOP            : 2
Format settings, QPel            : No
Format settings, GMC             : No warppoints
Format settings, Matrix          : Default (MPEG)
Codec ID                         : XVID
Codec ID/Hint                    : XviD
Duration                         : 1h 39mn
Bit rate                         : 1 502 Kbps
Width                            : 720 pixels
Height                           : 400 pixels
Display aspect ratio             : 16:9
Frame rate                       : 23.976 fps
Color space                      : YUV
Chroma subsampling               : 4:2:0
Bit depth                        : 8 bits
Scan type                        : Progressive
Compression mode                 : Lossy
Bits/(Pixel*Frame)               : 0.218
Stream size                      : 1.04 GiB (77%)
Writing library                  : XviD 1.2.1 (UTC 2008-12-04)

Audio:

Format                           : AC-3
Format/Info                      : Audio Coding 3
Mode extension                   : CM (complete main)
Codec ID                         : 2000
Duration                         : 1h 39mn
Bit rate mode                    : Constant
Bit rate                         : 448 Kbps
Channel(s)                       : 6 channels
Channel positions                : Front: L C R, Side: L R, LFE
Sampling rate                    : 48.0 KHz
Bit depth                        : 16 bits
Compression mode                 : Lossy
Stream size                      : 319 MiB (23%)
Alignment                        : Split accross interleaves
Interleave, duration             : 42 ms (1.00 video frame)
Interleave, preload duration     : 500 ms